<svg xmlns="http://www.w3.org/2000/svg" viewBox="0 0 96 96">
<defs><linearGradient id="g" x1="0" y1="0" x2="1" y2="1"><stop offset="0" stop-color="#A769DE"/><stop offset="1" stop-color="#7E22CE"/></linearGradient></defs>
<rect width="96" height="96" rx="22" fill="url(#g)"/>
<circle cx="80" cy="12" r="30" fill="#fff" opacity=".1"/>
<path d="M48 31C40 25 28 25 19 28V69C28 66 40 66 48 72Z" fill="#fff"/><path d="M48 31C56 25 68 25 77 28V69C68 66 56 66 48 72Z" fill="#fff"/><path d="M48 31V72" fill="none" stroke="#7E22CE" stroke-width="2.5"/><path d="M26 38Q33 36 41 39M26 47Q33 45 41 48M26 56Q33 54 41 57M55 39Q63 36 70 38M55 48Q63 45 70 47M55 57Q63 54 70 56" fill="none" stroke="#7E22CE" stroke-width="2.5" stroke-linecap="round" opacity=".45"/>
</svg>
